<?xml version="1.0" standalone="no"?>
<!DOCTYPE svg PUBLIC "-//W3C//DTD SVG 20010904//EN"
 "http://www.w3.org/TR/2001/REC-SVG-20010904/DTD/svg10.dtd">
<svg version="1.0" xmlns="http://www.w3.org/2000/svg"
 width="194.000000pt" height="183.000000pt" viewBox="0 0 194.000000 183.000000"
 preserveAspectRatio="xMidYMid meet">

<g transform="translate(0.000000,183.000000) scale(0.100000,-0.100000)"
fill="#000000" stroke="none">
<path d="M815 1764 c-169 -39 -248 -72 -348 -147 -126 -96 -228 -252 -276
-427 -12 -41 -21 -78 -21 -82 0 -4 114 -9 254 -10 l254 -3 11 50 c27 120 101
223 194 270 41 20 66 25 127 25 92 0 158 -28 215 -92 44 -48 92 -146 101 -204
l6 -43 219 -3 c253 -3 233 -15 198 112 -73 269 -261 464 -514 535 -58 17 -370
31 -420 19z"/>
<path d="M983 1092 l-43 -3 0 -195 0 -194 195 0 195 0 0 195 c0 107 -3 195 -7
195 -49 3 -308 4 -340 2z"/>
<path d="M366 693 l-198 -3 6 -43 c18 -113 90 -263 176 -366 94 -112 245 -204
405 -247 101 -27 390 -27 490 0 153 41 273 113 376 224 61 66 97 118 88 126
-2 1 -98 31 -212 66 l-209 62 -46 -46 c-68 -69 -120 -90 -225 -94 -83 -4 -93
-2 -152 27 -90 44 -141 114 -175 236 l-17 60 -54 0 c-30 1 -143 -1 -253 -2z"/>
</g>
</svg>
