<?xml version="1.0" encoding="UTF-8" standalone="no"?>
<!-- Generator: Adobe Illustrator 9.0, SVG Export Plug-In  -->
<svg
xmlns:dc="http://purl.org/dc/elements/1.1/"
xmlns:cc="http://creativecommons.org/ns#"
xmlns:rdf="http://www.w3.org/1999/02/22-rdf-syntax-ns#"
xmlns:svg="http://www.w3.org/2000/svg"
xmlns="http://www.w3.org/2000/svg"
xmlns:sodipodi="http://sodipodi.sourceforge.net/DTD/sodipodi-0.dtd"
xmlns:inkscape="http://www.inkscape.org/namespaces/inkscape"
width="220"
height="140"
viewBox="0 0 176 112"
xml:space="preserve"
id="svg2"
version="1.1"
inkscape:version="0.48.2 r9819"
sodipodi:docname="Nuance_Communications_logo.svg"><title
id="title3165">Nuance Communications logo</title><metadata
id="metadata81"><rdf:RDF><cc:Work
rdf:about=""><dc:format>image/svg+xml</dc:format><dc:type
rdf:resource="http://purl.org/dc/dcmitype/StillImage" /><dc:title>Nuance Communications logo</dc:title><dc:creator><cc:Agent><dc:title>Nuance Communications, Inc.</dc:title></cc:Agent></dc:creator><dc:publisher><cc:Agent><dc:title>Nuance Communications, Inc.</dc:title></cc:Agent></dc:publisher><dc:description>Logo for Nuance Communications, Inc.</dc:description><dc:date>2014-01-27</dc:date><dc:source>http://www.brandsoftheworld.com</dc:source></cc:Work></rdf:RDF></metadata><defs
id="defs79">
</defs><sodipodi:namedview
pagecolor="#ffffff"
bordercolor="#666666"
borderopacity="1"
objecttolerance="10"
gridtolerance="10"
guidetolerance="10"
inkscape:pageopacity="0"
inkscape:pageshadow="2"
inkscape:window-width="1024"
inkscape:window-height="689"
id="namedview77"
showgrid="false"
fit-margin-top="0"
fit-margin-left="0"
fit-margin-right="0"
fit-margin-bottom="0"
inkscape:zoom="2.4495486"
inkscape:cx="110.85972"
inkscape:cy="55.325775"
inkscape:window-x="0"
inkscape:window-y="27"
inkscape:window-maximized="1"
inkscape:current-layer="svg2" />
<g
id="g3310"
transform="matrix(1.5417623,0,0,1.5417623,-44.878126,-0.53244266)"><g
id="g3268"><path
inkscape:connector-curvature="0"
id="path11"
d="m 71.264753,11.846952 c 9.545605,0 21.516586,8.828687 21.516586,8.828687 V 19.77058 c 0,0 -11.703939,-19.16138007 -33.51867,-19.16138007 H 52.55135 c -1.582146,0 -2.864629,1.16754827 -2.864629,2.60251817 V 21.380796 c 0,1.436866 1.282483,2.605174 2.864629,2.605174 h 18.710747 l 0.0026,-12.139018 z"
style="fill:#7fc31c;fill-rule:nonzero;stroke:none" /><path
inkscape:connector-curvature="0"
id="path13"
d="m 103.05448,33.459124 c -9.545988,0 -21.515073,-8.829068 -21.515073,-8.829068 v 0.908094 c 0,0 11.703559,19.158345 33.516013,19.158345 h 6.71132 c 1.58253,0 2.86576,-1.16831 2.86576,-2.603654 V 23.923382 c 0,-1.438004 -1.28323,-2.603277 -2.86576,-2.603277 h -18.71075 l -0.002,12.139019 z"
style="fill:#469c23;fill-rule:nonzero;stroke:none" /></g><g
id="g3260"><path
style="fill-rule:nonzero;stroke:none"
inkscape:connector-curvature="0"
id="path15"
d="M 44.348163,52.792338 V 64.28537 l -14.716502,-12.32071 -0.0046,0.955127 v 18.98879 h 3.797378 V 60.40947 L 48.142475,72.725636 V 71.908577 52.792338 h -3.794344 z" /><path
style="fill-rule:nonzero;stroke:none"
inkscape:connector-curvature="0"
id="path17"
d="m 64.172975,65.317126 c 0,2.054399 -1.416383,3.609231 -3.350918,3.609231 -1.959191,0 -3.372919,-1.554832 -3.372919,-3.609231 V 55.195332 h -3.681307 v 10.264796 c 0,3.939997 2.409445,6.862284 7.054226,6.862284 4.62278,0 7.029189,-2.922287 7.029189,-6.862284 V 55.195332 h -3.678271 v 10.121794 z" /><path
style="fill-rule:nonzero;stroke:none"
inkscape:connector-curvature="0"
id="path19"
d="m 79.100382,60.145847 2.289575,5.798289 h -2.289575 v 3.109297 h 3.559163 l 1.14593,2.84642 h 4.152419 L 80.694662,55.195332 h -1.59428 v 4.950515 z m -2.289202,5.798289 h 2.289202 v 3.109297 h -3.451445 l -1.158825,2.84642 h -4.057968 l 7.220744,-16.704521 h 1.447494 v 4.950515 l -0.03488,-0.08953 -2.254298,5.887814 z" /><path
style="fill-rule:nonzero;stroke:none"
inkscape:connector-curvature="0"
id="path21"
d="m 103.85067,64.46441 h -0.0489 l -12.074536,-10.091823 -0.0039,0.822745 v 16.704521 h 3.679792 v -9.272496 h 0.04669 l 12.079094,10.09145 V 71.899853 55.195332 h -3.67827 v 9.269078 z" /><path
style="fill-rule:nonzero;stroke:none"
inkscape:connector-curvature="0"
id="path23"
d="m 120.35946,68.926357 c -2.66511,0 -4.71685,-2.262269 -4.71685,-5.376111 0,-3.116499 2.05174,-5.38294 4.8333,-5.38294 1.37124,0 2.43334,0.499568 3.16126,1.370486 l 2.83201,-2.310441 c -1.41373,-1.821501 -3.77386,-2.455339 -5.63822,-2.455339 -5.21377,0 -9.01038,3.422228 -9.01038,8.778234 0,5.350319 3.79661,8.772166 9.01038,8.772166 2.28882,0 4.64895,-0.919089 6.04068,-2.899906 l -3.06833,-2.288821 c -0.75447,1.131138 -1.95616,1.792672 -3.44385,1.792672 z" /><path
style="fill-rule:nonzero;stroke:none"
inkscape:connector-curvature="0"
id="path25"
d="m 134.65415,68.499626 v -3.394541 h 7.23896 v -3.398713 h -7.23896 v -3.113088 h 7.66608 v -3.397952 h -11.34624 v 16.704521 h 11.77069 v -3.400227 h -8.09053 z" /></g><path
d="m 132.53072,41.94642 c 0.0304,-0.05997 0.0474,-0.136174 0.0474,-0.232146 0,-0.08421 -0.0178,-0.151345 -0.0474,-0.205965 v -0.493882 c 0.32014,0.108106 0.47453,0.345946 0.47453,0.720333 0,0.38729 -0.19345,0.601599 -0.47453,0.696429 V 41.94642 z m 0,0.923269 0.53826,0.831088 h -0.45936 l -0.0789,-0.124412 v -0.706676 z m 0,1.72932 c 0.98586,-0.271214 1.72894,-1.161855 1.72894,-2.285784 0,-1.103444 -0.74308,-1.987637 -1.72894,-2.257716 v 0.365662 c 0.76623,0.263632 1.29917,0.997233 1.29917,1.892054 0,0.917194 -0.53294,1.654213 -1.29917,1.918225 v 0.367559 z m -0.53826,-2.432205 c 0.23936,-0.007 0.44798,-0.04288 0.53826,-0.220384 v 0.484769 c -0.0774,0.02618 -0.16159,0.04249 -0.25035,0.05197 l 0.25035,0.386529 v 0.706676 l -0.53826,-0.847402 v -0.562159 z m 0.53826,-0.658495 c -0.0952,-0.17525 -0.32167,-0.213937 -0.53826,-0.216594 V 40.94615 h 0.0482 c 0.19345,0 0.35617,0.02315 0.49008,0.06828 v 0.493881 z m 0,-1.4528 v 0.365662 c -0.16918,-0.05803 -0.34935,-0.09445 -0.53826,-0.103554 v -0.345938 c 0.18549,0.0078 0.36529,0.03643 0.53826,0.08383 z m 0,4.175941 v 0.367559 c -0.17297,0.04778 -0.35277,0.0759 -0.53826,0.08345 V 44.33349 c 0.18891,-0.0091 0.36908,-0.04366 0.53826,-0.102039 z m -1.04579,0.418388 c 0.13353,0.02276 0.27122,0.03449 0.41081,0.03449 0.0326,0 0.0645,-7.61e-4 0.0967,-0.0016 V 44.33376 c -0.0322,0.0016 -0.0637,0.0016 -0.0967,0.0016 -0.14149,0 -0.2788,-0.01406 -0.41081,-0.04133 v 0.355805 z m 0,-2.134438 h 0.37174 l 0.13579,0.213563 v -0.562159 c -0.0463,0.0016 -0.0933,0.0016 -0.14111,0.0016 h -0.36642 v 0.347073 z m 0,-1.224065 h 0.48553 l 0.022,3.8e-4 V 40.94615 h -0.50754 v 0.345185 z m 0,-0.933889 c 0.13201,-0.02735 0.26932,-0.04211 0.41081,-0.04211 0.033,0 0.0645,7.77e-4 0.0967,0.0023 v -0.345939 c -0.0322,-7.77e-4 -0.0641,-0.0023 -0.0967,-0.0023 -0.13959,0 -0.27728,0.01251 -0.41081,0.03488 v 0.353148 z m 0,-0.353147 v 0.353147 c -0.89368,0.18663 -1.53435,0.974098 -1.53435,1.955779 0,1.005957 0.64067,1.794567 1.53435,1.980808 v 0.355805 c -1.10192,-0.188899 -1.96298,-1.12772 -1.96298,-2.336613 0,-1.186512 0.86106,-2.120401 1.96298,-2.308926 z m 0,0.941851 h -0.50753 v 2.754627 h 0.42978 V 42.5154 h 0.0777 v -0.347073 h -0.0777 v -0.876992 h 0.0777 V 40.94615 z"
id="path27"
inkscape:connector-curvature="0"
style="fill-rule:nonzero;stroke:none" /></g>
</svg>
